<svg width="18" height="20" viewBox="0 0 18 20" fill="none" xmlns="http://www.w3.org/2000/svg">
<path d="M12.3337 13.3333C12.3337 13.5543 12.2459 13.7663 12.0896 13.9226C11.9333 14.0789 11.7213 14.1667 11.5003 14.1667H9.83366V15.8333C9.83366 16.0543 9.74586 16.2663 9.58958 16.4226C9.4333 16.5789 9.22134 16.6667 9.00033 16.6667C8.77931 16.6667 8.56735 16.5789 8.41107 16.4226C8.25479 16.2663 8.16699 16.0543 8.16699 15.8333V14.1667H6.50033C6.27931 14.1667 6.06735 14.0789 5.91107 13.9226C5.75479 13.7663 5.66699 13.5543 5.66699 13.3333C5.66699 13.1123 5.75479 12.9003 5.91107 12.7441C6.06735 12.5878 6.27931 12.5 6.50033 12.5H8.16699V10.8333C8.16699 10.6123 8.25479 10.4003 8.41107 10.2441C8.56735 10.0878 8.77931 9.99999 9.00033 9.99999C9.22134 9.99999 9.4333 10.0878 9.58958 10.2441C9.74586 10.4003 9.83366 10.6123 9.83366 10.8333V12.5H11.5003C11.7213 12.5 11.9333 12.5878 12.0896 12.7441C12.2459 12.9003 12.3337 13.1123 12.3337 13.3333ZM17.3337 8.73749V15.8333C17.3323 16.938 16.8929 17.997 16.1118 18.7781C15.3307 19.5593 14.2717 19.9987 13.167 20H4.83366C3.729 19.9987 2.66996 19.5593 1.88884 18.7781C1.10773 17.997 0.668315 16.938 0.666992 15.8333V4.16666C0.668315 3.06199 1.10773 2.00295 1.88884 1.22184C2.66996 0.440724 3.729 0.0013119 4.83366 -1.13103e-05H8.59616C9.36251 -0.00198375 10.1216 0.147978 10.8297 0.441205C11.5377 0.734431 12.1806 1.1651 12.7212 1.70832L15.6245 4.61332C16.168 5.15352 16.599 5.7962 16.8923 6.50413C17.1857 7.21206 17.3357 7.97117 17.3337 8.73749ZM11.5428 2.88666C11.2806 2.63262 10.9861 2.41409 10.667 2.23666V5.83332C10.667 6.05434 10.7548 6.2663 10.9111 6.42258C11.0674 6.57886 11.2793 6.66666 11.5003 6.66666H15.097C14.9195 6.34765 14.7006 6.05344 14.4462 5.79166L11.5428 2.88666ZM15.667 8.73749C15.667 8.59999 15.6403 8.46832 15.6278 8.33332H11.5003C10.8373 8.33332 10.2014 8.06993 9.73256 7.60109C9.26372 7.13225 9.00033 6.49636 9.00033 5.83332V1.70582C8.86532 1.69332 8.73283 1.66666 8.59616 1.66666H4.83366C4.17062 1.66666 3.53473 1.93005 3.06589 2.39889C2.59705 2.86773 2.33366 3.50361 2.33366 4.16666V15.8333C2.33366 16.4964 2.59705 17.1322 3.06589 17.6011C3.53473 18.0699 4.17062 18.3333 4.83366 18.3333H13.167C13.83 18.3333 14.4659 18.0699 14.9348 17.6011C15.4036 17.1322 15.667 16.4964 15.667 15.8333V8.73749Z" fill="white"/>
</svg>
